<?xml version="1.0" encoding="UTF-8" standalone="no"?>
<!-- Created with Inkscape (http://www.inkscape.org/) -->

<svg
   width="210mm"
   height="297mm"
   viewBox="0 0 210 297"
   version="1.1"
   id="svg5"
   inkscape:export-filename="/home/ubbe/WebstormProjects/yritys/img/logo.png"
   inkscape:export-xdpi="96"
   inkscape:export-ydpi="96"
   inkscape:version="1.1 (c4e8f9ed74, 2021-05-24)"
   sodipodi:docname="logo.svg"
   xmlns:inkscape="http://www.inkscape.org/namespaces/inkscape"
   xmlns:sodipodi="http://sodipodi.sourceforge.net/DTD/sodipodi-0.dtd"
   xmlns="http://www.w3.org/2000/svg"
   xmlns:svg="http://www.w3.org/2000/svg">
  <sodipodi:namedview
     id="namedview7"
     pagecolor="#505050"
     bordercolor="#eeeeee"
     borderopacity="1"
     inkscape:pageshadow="0"
     inkscape:pageopacity="0"
     inkscape:pagecheckerboard="0"
     inkscape:document-units="mm"
     showgrid="false"
     inkscape:zoom="3.3260208"
     inkscape:cx="59.229937"
     inkscape:cy="143.41462"
     inkscape:window-width="1710"
     inkscape:window-height="1384"
     inkscape:window-x="1720"
     inkscape:window-y="0"
     inkscape:window-maximized="0"
     inkscape:current-layer="layer1" />
  <defs
     id="defs2" />
  <g
     inkscape:label="Taso 1"
     inkscape:groupmode="layer"
     id="layer1">
    <rect
       style="fill:#eee8d5;stroke-width:0.17175;fill-opacity:0"
       id="rect31"
       width="52.916668"
       height="52.916668"
       x="0"
       y="0"
       inkscape:export-filename="/home/ubbe/WebstormProjects/yritys/img/logo.svg"
       inkscape:export-xdpi="96"
       inkscape:export-ydpi="96" />
    <text
       xml:space="preserve"
       style="font-size:50.8px;line-height:1.25;font-family:Heaters;-inkscape-font-specification:Heaters;stroke-width:0.264583"
       x="16.425335"
       y="39.005936"
       id="text3932"><tspan
         sodipodi:role="line"
         id="tspan3930"
         style="font-size:50.8px;stroke-width:0.264583"
         x="16.425335"
         y="39.005936">P</tspan></text>
    <path
       id="path17586"
       style="font-size:50.8px;line-height:1.25;font-family:Heaters;-inkscape-font-specification:Heaters;stroke-width:0.264583"
       d="m 24.781953,6.462003 c -0.254,0 -0.660316,0.1016909 -0.863516,0.304891 0,0 0.05116,-1.57e-4 0.05116,0.05064 0,0.0508 -3.6e-4,0.1018031 -0.05116,0.1018031 h -0.05064 c -0.0508,0 -0.203089,-0.05116 -0.203089,-0.05116 h -0.05116 c -0.3048,0 -0.660423,0.8129577 -0.660423,1.1177577 0,0.406401 0.05089,0.96525 0.30489,1.320849 0.254,0.304801 0.813006,1.0159582 1.270206,1.0159582 1.1176,0 2.235007,-0.4570252 2.235007,-1.7270232 0,-1.066801 -0.863674,-2.1337188 -1.981274,-2.1337188 z m 5.486484,0.05064 c -0.1016,0 -0.863512,0.1524912 -0.863512,0.304891 h 0.05064 c 0,0.1016 0.05096,0.152446 -0.05064,0.152446 h -0.05064 L 29.151196,6.91934 h -0.05116 c -0.3556,0.3048 -0.609267,0.6600407 -0.609267,1.1172417 0,0.4572 -2.67e-4,0.96525 0.253733,1.320849 0.2032,0.2032 0.863806,1.0159573 1.270206,1.0159573 1.1176,0 2.285648,-0.4570243 2.285648,-1.7270233 0,-1.066802 -0.914318,-2.1337186 -2.031918,-2.1337186 z m -5.943306,0.254248 h 0.05064 c -0.0508,0.0508 -0.101489,0.101286 -0.203089,0.101286 0,-0.1015999 0.101645,-0.101286 0.152445,-0.101286 z m 5.485971,0.05064 h 0.05116 c -0.0508,0.0508 -0.101489,0.05064 -0.203089,0.05064 0,-0.0508 0.101129,-0.05064 0.151929,-0.05064 z m -9.194789,15.49414 v 0.101286 c 0.0508,0 0.0508,-0.05049 0,-0.101286 z m 0.203607,0.05064 c -0.0508,0 -0.0508,0.101803 0,0.101803 z" />
  </g>
</svg>
